<svg width="100" height="100" viewBox="0 0 100 100" fill="none" xmlns="http://www.w3.org/2000/svg">
<path d="M100 50C100 77.6142 77.6142 100 50 100C22.3858 100 0 77.6142 0 50C0 22.3858 22.3858 0 50 0C77.6142 0 100 22.3858 100 50Z" fill="#002D63" fill-opacity="0.2"/>
<path d="M75.6329 50.3165C75.6329 64.2983 64.2983 75.6329 50.3165 75.6329C36.3346 75.6329 25 64.2983 25 50.3165C25 36.3346 36.3346 25 50.3165 25C64.2983 25 75.6329 36.3346 75.6329 50.3165Z" fill="#002D63"/>
<path opacity="0.2" d="M58.4016 49.1531V58.3999C58.4016 58.6121 58.3173 58.8156 58.1672 58.9656C58.0172 59.1156 57.8137 59.1999 57.6015 59.1999H52.8011C52.5889 59.1999 52.3854 59.1156 52.2354 58.9656C52.0853 58.8156 52.001 58.6121 52.001 58.3999V53.5995C52.001 53.3873 51.9167 53.1838 51.7667 53.0337C51.6166 52.8837 51.4131 52.7994 51.201 52.7994H48.0007C47.7885 52.7994 47.585 52.8837 47.4349 53.0337C47.2849 53.1838 47.2006 53.3873 47.2006 53.5995V58.3999C47.2006 58.6121 47.1163 58.8156 46.9663 58.9656C46.8162 59.1156 46.6127 59.1999 46.4005 59.1999H41.6001C41.3879 59.1999 41.1844 59.1156 41.0344 58.9656C40.8844 58.8156 40.8001 58.6121 40.8001 58.3999V49.1531C40.8001 49.0416 40.8234 48.9313 40.8685 48.8294C40.9136 48.7274 40.9796 48.636 41.0621 48.561L49.0628 41.0064C49.2101 40.8723 49.4021 40.798 49.6013 40.798C49.8005 40.798 49.9925 40.8723 50.1399 41.0064L58.1405 48.561C58.2229 48.6361 58.2886 48.7275 58.3336 48.8295C58.3785 48.9314 58.4017 49.0417 58.4016 49.1531Z" fill="white"/>
<path d="M58.6846 47.976L50.6839 40.4273C50.68 40.4239 50.6763 40.4202 50.6729 40.4163C50.3783 40.1484 49.9945 40 49.5963 40C49.1982 40 48.8143 40.1484 48.5197 40.4163L48.5087 40.4273L40.517 47.976C40.354 48.1259 40.2239 48.308 40.1349 48.5108C40.0459 48.7136 40 48.9326 40 49.1541V58.3999C40 58.8242 40.1686 59.2312 40.4687 59.5313C40.7688 59.8314 41.1758 60 41.6001 60H46.4005C46.8249 60 47.2319 59.8314 47.532 59.5313C47.8321 59.2312 48.0007 58.8242 48.0007 58.3999V53.5995H51.201V58.3999C51.201 58.8242 51.3695 59.2312 51.6696 59.5313C51.9697 59.8314 52.3767 60 52.8011 60H57.6015C58.0259 60 58.4329 59.8314 58.733 59.5313C59.033 59.2312 59.2016 58.8242 59.2016 58.3999V49.1541C59.2017 48.9326 59.1557 48.7136 59.0667 48.5108C58.9777 48.308 58.8476 48.1259 58.6846 47.976ZM57.6015 58.3999H52.8011V53.5995C52.8011 53.1751 52.6325 52.7681 52.3324 52.468C52.0323 52.1679 51.6253 51.9993 51.201 51.9993H48.0007C47.5763 51.9993 47.1693 52.1679 46.8692 52.468C46.5691 52.7681 46.4005 53.1751 46.4005 53.5995V58.3999H41.6001V49.1541L41.6111 49.1441L49.6008 41.5984L57.5915 49.1421L57.6025 49.1521L57.6015 58.3999Z" fill="white"/>
</svg>
